<?xml version="1.0" standalone="no"?><!DOCTYPE svg PUBLIC "-//W3C//DTD SVG 1.1//EN" "http://www.w3.org/Graphics/SVG/1.1/DTD/svg11.dtd"><svg t="1593081478741" class="icon" viewBox="0 0 1024 1024" version="1.1" xmlns="http://www.w3.org/2000/svg" p-id="5445" xmlns:xlink="http://www.w3.org/1999/xlink" width="200" height="200"><defs><style type="text/css"></style></defs><path d="M944.756 952.134c0 0-3.743 32.64-53.282 26.997-15.766-1.792-32.56-26.997-32.56-26.997C830.177 768.165 686.677 628.17 513.515 628.17c-173.16 0-316.661 139.995-345.398 323.964 0 0-6.618 24.836-32.56 26.997-60.585 5.063-53.282-26.997-53.282-26.997 5.563-168.889 114.183-312.547 267.043-373.555-79.989-53.229-132.771-144.106-132.771-247.375 0-164.012 132.955-296.967 296.967-296.967s296.967 132.955 296.967 296.967c0 103.269-52.78 194.146-132.77 247.375C830.572 639.587 939.192 783.245 944.756 952.134zM729.492 331.203c0-119.272-96.704-215.976-215.977-215.976-119.271 0-215.976 96.704-215.976 215.976s96.704 215.975 215.976 215.975C632.788 547.178 729.492 450.475 729.492 331.203z" p-id="5446" fill="#515151"></path></svg>